<svg width="19" height="15" viewBox="0 0 19 15" fill="none" xmlns="http://www.w3.org/2000/svg">
<path d="M0.976611 0C1.25188 0 1.45207 0 1.65227 0C6.65713 0 11.662 0 16.6669 0C18.2309 0 18.9941 0.764092 18.9941 2.35491C18.9941 3.20668 19.0066 4.07098 18.9941 4.92276C18.9816 6.17537 18.1558 7.00209 16.9171 7.01461C16.2915 7.02714 15.6784 7.01461 15.0027 7.01461C15.0027 7.99165 15.0027 8.89353 15.0027 9.80793C14.9902 12.3132 13.3011 14.0167 10.8112 14.0292C8.93435 14.0292 7.05752 14.0418 5.1807 14.0292C2.7158 14.0167 1.00164 12.3257 1.00164 9.87056C0.964099 6.60125 0.976611 3.35699 0.976611 0ZM15.0403 2.0167C15.0403 2.99374 15.0403 3.9833 15.0403 4.97286C15.6909 4.97286 16.3165 4.97286 16.9421 4.97286C16.9421 3.97077 16.9421 2.99374 16.9421 2.0167C16.2915 2.0167 15.6909 2.0167 15.0403 2.0167Z" fill="#C4C4C4"/>
</svg>
